<svg width="24" height="24" viewBox="0 0 24 24" fill="none" xmlns="http://www.w3.org/2000/svg">
<path d="M21.0002 18.9997L15.8462 13.8457C16.799 12.3976 17.1807 10.6475 16.9172 8.93418C16.6538 7.22086 15.764 5.66623 14.4201 4.57129C13.0762 3.47635 11.3739 2.91898 9.64269 3.0071C7.91148 3.09523 6.27453 3.82257 5.04879 5.04831C3.82305 6.27404 3.09571 7.91099 3.00759 9.6422C2.91947 11.3734 3.47684 13.0758 4.57178 14.4196C5.66672 15.7635 7.22135 16.6533 8.93467 16.9167C10.648 17.1802 12.3981 16.7986 13.8462 15.8457L19.0002 20.9997L21.0002 18.9997ZM5.00022 9.99973C5.00022 7.24273 7.24322 4.99973 10.0002 4.99973C12.7572 4.99973 15.0002 7.24273 15.0002 9.99973C15.0002 12.7567 12.7572 14.9997 10.0002 14.9997C7.24322 14.9997 5.00022 12.7567 5.00022 9.99973Z" fill="white"/>
</svg>
