<svg width="26" height="26" viewBox="0 0 26 26" fill="none" xmlns="http://www.w3.org/2000/svg">
<path d="M23.8957 7.52336C23.7663 7.04239 23.5128 6.60386 23.1606 6.25166C22.8084 5.89946 22.3698 5.64595 21.8889 5.51648C20.1176 5.03711 13.0001 5.03711 13.0001 5.03711C13.0001 5.03711 5.88262 5.03711 4.11137 5.51648C3.63041 5.64595 3.19188 5.89946 2.83968 6.25166C2.48748 6.60386 2.23396 7.04239 2.1045 7.52336C1.77377 9.32976 1.61327 11.1632 1.62512 12.9996C1.61327 14.836 1.77377 16.6695 2.1045 18.4759C2.23396 18.9568 2.48748 19.3954 2.83968 19.7476C3.19188 20.0998 3.63041 20.3533 4.11137 20.4827C5.88262 20.9621 13.0001 20.9621 13.0001 20.9621C13.0001 20.9621 20.1176 20.9621 21.8889 20.4827C22.3698 20.3533 22.8084 20.0998 23.1606 19.7476C23.5128 19.3954 23.7663 18.9568 23.8957 18.4759C24.2265 16.6695 24.387 14.836 24.3751 12.9996C24.387 11.1632 24.2265 9.32976 23.8957 7.52336ZM10.7251 16.4121V9.58711L16.632 12.9996L10.7251 16.4121Z" fill="#333333"/>
</svg>
